<svg width="100%" height="100%" viewBox="0 0 560 225" fill="none" xmlns="http://www.w3.org/2000/svg">
  <g clip-path="url(#clip0_30_815)">
    <path
      d="M494.513 50.4569L478.06 221.805C477.9 223.473 475.833 224.537 473.237 224.287C470.641 224.038 468.815 222.601 468.975 220.933L485.427 49.5845C485.587 47.9168 487.654 46.8531 490.25 47.1023C492.846 47.3516 494.673 48.7892 494.513 50.4569Z"
      fill="#05EEB6" />
    <path
      d="M494.513 50.4569L478.06 221.805C477.9 223.473 475.833 224.537 473.237 224.287C470.641 224.038 468.815 222.601 468.975 220.933L485.427 49.5845C485.587 47.9168 487.654 46.8531 490.25 47.1023C492.846 47.3516 494.673 48.7892 494.513 50.4569Z"
      fill="black" fill-opacity="0.2" />
    <path
      d="M463.686 47.4969L447.234 218.845C447.074 220.513 445.007 221.577 442.411 221.327C439.815 221.078 437.988 219.641 438.148 217.973L454.601 46.6245C454.761 44.9569 456.828 43.8931 459.424 44.1424C461.695 44.3605 463.847 45.8293 463.686 47.4969Z"
      fill="#05EEB6" />
    <path
      d="M463.686 47.4969L447.234 218.845C447.074 220.513 445.007 221.577 442.411 221.327C439.815 221.078 437.988 219.641 438.148 217.973L454.601 46.6245C454.761 44.9569 456.828 43.8931 459.424 44.1424C461.695 44.3605 463.847 45.8293 463.686 47.4969Z"
      fill="black" fill-opacity="0.2" />
    <path
      d="M432.535 44.5058L416.082 215.854C415.922 217.522 413.855 218.586 411.259 218.336C408.663 218.087 406.837 216.649 406.997 214.982L423.449 43.6334C423.609 41.9658 425.676 40.902 428.272 41.1513C430.868 41.4005 432.695 42.8382 432.535 44.5058Z"
      fill="#05EEB6" />
    <path
      d="M432.535 44.5058L416.082 215.854C415.922 217.522 413.855 218.586 411.259 218.336C408.663 218.087 406.837 216.649 406.997 214.982L423.449 43.6334C423.609 41.9658 425.676 40.902 428.272 41.1513C430.868 41.4005 432.695 42.8382 432.535 44.5058Z"
      fill="black" fill-opacity="0.2" />
    <path
      d="M401.708 41.5459L385.256 212.894C385.096 214.562 383.029 215.626 380.433 215.376C377.837 215.127 376.01 213.689 376.17 212.022L392.623 40.6734C392.783 39.0058 394.85 37.9421 397.446 38.1913C400.042 38.4406 401.869 39.8782 401.708 41.5459Z"
      fill="#05EEB6" />
    <path
      d="M401.708 41.5459L385.256 212.894C385.096 214.562 383.029 215.626 380.433 215.376C377.837 215.127 376.01 213.689 376.17 212.022L392.623 40.6734C392.783 39.0058 394.85 37.9421 397.446 38.1913C400.042 38.4406 401.869 39.8782 401.708 41.5459Z"
      fill="black" fill-opacity="0.2" />
    <path
      d="M370.558 38.5549L354.106 209.903C353.946 211.571 351.879 212.635 349.283 212.385C346.687 212.136 344.86 210.699 345.02 209.031L361.473 37.6825C361.633 36.0149 363.7 34.9511 366.296 35.2004C368.892 35.4496 370.719 36.8873 370.558 38.5549Z"
      fill="#05EEB6" />
    <path
      d="M370.558 38.5549L354.106 209.903C353.946 211.571 351.879 212.635 349.283 212.385C346.687 212.136 344.86 210.699 345.02 209.031L361.473 37.6825C361.633 36.0149 363.7 34.9511 366.296 35.2004C368.892 35.4496 370.719 36.8873 370.558 38.5549Z"
      fill="black" fill-opacity="0.2" />
    <path
      d="M339.732 35.5949L323.279 206.943C323.119 208.611 321.052 209.675 318.456 209.425C315.86 209.176 314.033 207.739 314.193 206.071L330.646 34.7225C330.806 33.0549 332.873 31.9911 335.469 32.2404C338.065 32.4897 339.892 33.9273 339.732 35.5949Z"
      fill="#05EEB6" />
    <path
      d="M339.732 35.5949L323.279 206.943C323.119 208.611 321.052 209.675 318.456 209.425C315.86 209.176 314.033 207.739 314.193 206.071L330.646 34.7225C330.806 33.0549 332.873 31.9911 335.469 32.2404C338.065 32.4897 339.892 33.9273 339.732 35.5949Z"
      fill="black" fill-opacity="0.2" />
    <path
      d="M308.579 32.6037L292.126 203.952C291.966 205.62 289.899 206.684 287.303 206.434C284.707 206.185 282.88 204.747 283.04 203.08L299.493 31.7313C299.653 30.0637 301.72 28.9999 304.316 29.2492C306.912 29.4984 308.739 30.9361 308.579 32.6037Z"
      fill="#05EEB6" />
    <path
      d="M308.579 32.6037L292.126 203.952C291.966 205.62 289.899 206.684 287.303 206.434C284.707 206.185 282.88 204.747 283.04 203.08L299.493 31.7313C299.653 30.0637 301.72 28.9999 304.316 29.2492C306.912 29.4984 308.739 30.9361 308.579 32.6037Z"
      fill="black" fill-opacity="0.2" />
    <path
      d="M277.752 29.6438L261.299 200.992C261.139 202.66 259.072 203.724 256.476 203.474C253.88 203.225 252.053 201.787 252.213 200.12L268.666 28.7713C268.826 27.1037 270.893 26.04 273.489 26.2892C276.085 26.5385 277.912 27.9761 277.752 29.6438Z"
      fill="#05EEB6" />
    <path
      d="M277.752 29.6438L261.299 200.992C261.139 202.66 259.072 203.724 256.476 203.474C253.88 203.225 252.053 201.787 252.213 200.12L268.666 28.7713C268.826 27.1037 270.893 26.04 273.489 26.2892C276.085 26.5385 277.912 27.9761 277.752 29.6438Z"
      fill="black" fill-opacity="0.2" />
    <path
      d="M246.925 26.6838L230.473 198.032C230.312 199.7 228.245 200.764 225.649 200.514C223.054 200.265 221.227 198.827 221.387 197.16L237.839 25.8114C238 24.1438 240.067 23.08 242.663 23.3293C245.258 23.5785 247.085 25.0162 246.925 26.6838Z"
      fill="#05EEB6" />
    <path
      d="M246.925 26.6838L230.473 198.032C230.312 199.7 228.245 200.764 225.649 200.514C223.054 200.265 221.227 198.827 221.387 197.16L237.839 25.8114C238 24.1438 240.067 23.08 242.663 23.3293C245.258 23.5785 247.085 25.0162 246.925 26.6838Z"
      fill="black" fill-opacity="0.2" />
    <path
      d="M215.775 23.6928L199.323 195.041C199.163 196.709 197.095 197.773 194.5 197.523C191.904 197.274 190.077 195.836 190.237 194.169L206.69 22.8204C206.85 21.1528 208.917 20.089 211.513 20.3383C214.109 20.5876 215.935 22.0252 215.775 23.6928Z"
      fill="#05EEB6" />
    <path
      d="M215.775 23.6928L199.323 195.041C199.163 196.709 197.095 197.773 194.5 197.523C191.904 197.274 190.077 195.836 190.237 194.169L206.69 22.8204C206.85 21.1528 208.917 20.089 211.513 20.3383C214.109 20.5876 215.935 22.0252 215.775 23.6928Z"
      fill="black" fill-opacity="0.2" />
    <path
      d="M184.949 20.7329L168.496 192.081C168.336 193.749 166.269 194.813 163.673 194.563C161.077 194.314 159.25 192.877 159.41 191.209L175.863 19.8605C176.023 18.1928 178.09 17.1291 180.686 17.3783C183.282 17.6276 185.109 19.0652 184.949 20.7329Z"
      fill="#05EEB6" />
    <path
      d="M184.949 20.7329L168.496 192.081C168.336 193.749 166.269 194.813 163.673 194.563C161.077 194.314 159.25 192.877 159.41 191.209L175.863 19.8605C176.023 18.1928 178.09 17.1291 180.686 17.3783C183.282 17.6276 185.109 19.0652 184.949 20.7329Z"
      fill="black" fill-opacity="0.2" />
    <path
      d="M153.796 17.7417L137.343 189.09C137.183 190.758 135.116 191.821 132.52 191.572C129.924 191.323 128.097 189.885 128.257 188.218L144.71 16.8692C144.87 15.2016 146.937 14.1379 149.533 14.3871C152.129 14.6364 153.956 16.0741 153.796 17.7417Z"
      fill="#05EEB6" />
    <path
      d="M153.796 17.7417L137.343 189.09C137.183 190.758 135.116 191.821 132.52 191.572C129.924 191.323 128.097 189.885 128.257 188.218L144.71 16.8692C144.87 15.2016 146.937 14.1379 149.533 14.3871C152.129 14.6364 153.956 16.0741 153.796 17.7417Z"
      fill="black" fill-opacity="0.2" />
    <path
      d="M122.969 14.7817L106.516 186.13C106.356 187.798 104.289 188.862 101.693 188.612C99.0969 188.363 97.2701 186.925 97.4302 185.258L113.883 13.9093C114.043 12.2417 116.11 11.1779 118.706 11.4272C121.302 11.6764 123.129 13.1141 122.969 14.7817Z"
      fill="#05EEB6" />
    <path
      d="M122.969 14.7817L106.516 186.13C106.356 187.798 104.289 188.862 101.693 188.612C99.0969 188.363 97.2701 186.925 97.4302 185.258L113.883 13.9093C114.043 12.2417 116.11 11.1779 118.706 11.4272C121.302 11.6764 123.129 13.1141 122.969 14.7817Z"
      fill="black" fill-opacity="0.2" />
    <path
      d="M91.8187 11.7907L75.3661 183.139C75.206 184.807 73.1389 185.871 70.543 185.621C67.9471 185.372 66.1202 183.934 66.2803 182.267L82.733 10.9183C82.8931 9.2507 84.9601 8.18694 87.556 8.4362C90.152 8.68546 91.9788 10.1231 91.8187 11.7907Z"
      fill="#05EEB6" />
    <path
      d="M91.8187 11.7907L75.3661 183.139C75.206 184.807 73.1389 185.871 70.543 185.621C67.9471 185.372 66.1202 183.934 66.2803 182.267L82.733 10.9183C82.8931 9.2507 84.9601 8.18694 87.556 8.4362C90.152 8.68546 91.9788 10.1231 91.8187 11.7907Z"
      fill="black" fill-opacity="0.2" />
  </g>
  <g filter="url(#filter0_d_30_815)">
    <path
      d="M31.52 163.44C27.5733 163.44 24.5333 162.373 22.4 160.24C20.3733 158.107 19.36 155.067 19.36 151.12V101.52H13.6C10.6133 101.52 8.26667 100.72 6.56 99.12C4.96 97.52 4.16 95.3333 4.16 92.56C4.16 89.5733 4.96 87.3333 6.56 85.84C8.26667 84.24 10.6133 83.44 13.6 83.44H26.4L19.36 89.84V84.88C19.36 73.4667 22.1867 64.9333 27.84 59.28C33.6 53.6267 42.0267 50.2133 53.12 49.04L58.24 48.56C61.0133 48.3467 63.2 48.7733 64.8 49.84C66.5067 50.9067 67.6267 52.2933 68.16 54C68.6933 55.7067 68.8 57.4667 68.48 59.28C68.16 60.9867 67.4133 62.5333 66.24 63.92C65.1733 65.2 63.68 65.8933 61.76 66L59.52 66.16C53.76 66.5867 49.6533 67.9733 47.2 70.32C44.7467 72.56 43.52 76.0267 43.52 80.72V86.16L40.48 83.44H54.88C57.9733 83.44 60.32 84.24 61.92 85.84C63.52 87.3333 64.32 89.5733 64.32 92.56C64.32 95.3333 63.52 97.52 61.92 99.12C60.32 100.72 57.9733 101.52 54.88 101.52H43.52V151.12C43.52 159.333 39.52 163.44 31.52 163.44ZM113.299 163.76C104.019 163.76 96.0188 162.107 89.2988 158.8C82.6854 155.387 77.5654 150.64 73.9388 144.56C70.4188 138.373 68.6588 131.12 68.6588 122.8C68.6588 114.693 70.3654 107.6 73.7787 101.52C77.1921 95.3333 81.9388 90.5333 88.0188 87.12C94.2054 83.6 101.192 81.84 108.979 81.84C114.632 81.84 119.752 82.8 124.339 84.72C128.925 86.5333 132.872 89.2 136.179 92.72C139.485 96.1333 141.992 100.347 143.699 105.36C145.405 110.267 146.259 115.76 146.259 121.84C146.259 123.867 145.619 125.413 144.339 126.48C143.059 127.44 141.192 127.92 138.739 127.92H88.4988V115.44H128.819L126.259 117.68C126.259 113.307 125.619 109.68 124.339 106.8C123.059 103.813 121.192 101.573 118.739 100.08C116.392 98.5867 113.459 97.84 109.939 97.84C105.992 97.84 102.632 98.7467 99.8588 100.56C97.0854 102.373 94.9521 104.987 93.4588 108.4C91.9654 111.813 91.2188 115.92 91.2188 120.72V122C91.2188 130.107 93.0854 136.08 96.8188 139.92C100.659 143.76 106.312 145.68 113.779 145.68C116.339 145.68 119.272 145.36 122.579 144.72C125.885 144.08 128.979 143.067 131.859 141.68C134.312 140.507 136.499 140.133 138.419 140.56C140.339 140.88 141.832 141.733 142.899 143.12C143.965 144.507 144.552 146.107 144.659 147.92C144.872 149.733 144.499 151.547 143.539 153.36C142.579 155.067 140.979 156.507 138.739 157.68C135.112 159.707 131.005 161.2 126.419 162.16C121.939 163.227 117.565 163.76 113.299 163.76ZM201.111 163.76C191.831 163.76 183.831 162.107 177.111 158.8C170.498 155.387 165.378 150.64 161.751 144.56C158.231 138.373 156.471 131.12 156.471 122.8C156.471 114.693 158.178 107.6 161.591 101.52C165.005 95.3333 169.751 90.5333 175.831 87.12C182.018 83.6 189.005 81.84 196.791 81.84C202.445 81.84 207.565 82.8 212.151 84.72C216.738 86.5333 220.685 89.2 223.991 92.72C227.298 96.1333 229.805 100.347 231.511 105.36C233.218 110.267 234.071 115.76 234.071 121.84C234.071 123.867 233.431 125.413 232.151 126.48C230.871 127.44 229.005 127.92 226.551 127.92H176.311V115.44H216.631L214.071 117.68C214.071 113.307 213.431 109.68 212.151 106.8C210.871 103.813 209.005 101.573 206.551 100.08C204.205 98.5867 201.271 97.84 197.751 97.84C193.805 97.84 190.445 98.7467 187.671 100.56C184.898 102.373 182.765 104.987 181.271 108.4C179.778 111.813 179.031 115.92 179.031 120.72V122C179.031 130.107 180.898 136.08 184.631 139.92C188.471 143.76 194.125 145.68 201.591 145.68C204.151 145.68 207.085 145.36 210.391 144.72C213.698 144.08 216.791 143.067 219.671 141.68C222.125 140.507 224.311 140.133 226.231 140.56C228.151 140.88 229.645 141.733 230.711 143.12C231.778 144.507 232.365 146.107 232.471 147.92C232.685 149.733 232.311 151.547 231.351 153.36C230.391 155.067 228.791 156.507 226.551 157.68C222.925 159.707 218.818 161.2 214.231 162.16C209.751 163.227 205.378 163.76 201.111 163.76ZM278.684 163.76C271.857 163.76 265.83 162.107 260.604 158.8C255.484 155.493 251.484 150.747 248.604 144.56C245.724 138.373 244.284 131.067 244.284 122.64C244.284 114.213 245.724 106.96 248.604 100.88C251.484 94.8 255.484 90.1067 260.604 86.8C265.83 83.4933 271.857 81.84 278.684 81.84C284.87 81.84 290.31 83.3333 295.004 86.32C299.804 89.3067 303.057 93.2 304.764 98H303.004V60.08C303.004 56.0267 304.017 52.9867 306.044 50.96C308.07 48.8267 311.057 47.76 315.004 47.76C318.844 47.76 321.83 48.8267 323.964 50.96C326.097 52.9867 327.164 56.0267 327.164 60.08V151.12C327.164 155.067 326.097 158.107 323.964 160.24C321.937 162.373 319.004 163.44 315.164 163.44C311.324 163.44 308.337 162.373 306.204 160.24C304.177 158.107 303.164 155.067 303.164 151.12V140.24L304.924 146.48C303.43 151.707 300.23 155.92 295.324 159.12C290.524 162.213 284.977 163.76 278.684 163.76ZM285.884 145.68C289.404 145.68 292.444 144.827 295.004 143.12C297.564 141.413 299.59 138.907 301.084 135.6C302.577 132.187 303.324 127.867 303.324 122.64C303.324 114.853 301.724 109.147 298.524 105.52C295.324 101.787 291.11 99.92 285.884 99.92C282.47 99.92 279.43 100.72 276.764 102.32C274.204 103.92 272.177 106.427 270.684 109.84C269.297 113.147 268.604 117.413 268.604 122.64C268.604 130.427 270.204 136.24 273.404 140.08C276.604 143.813 280.764 145.68 285.884 145.68ZM338.74 192.08C335.86 192.187 333.567 191.707 331.86 190.64C330.153 189.573 328.98 188.187 328.34 186.48C327.7 184.88 327.54 183.227 327.86 181.52C328.073 179.813 328.767 178.32 329.94 177.04C331.113 175.76 332.713 175.013 334.74 174.8C338.9 174.48 341.887 173.307 343.7 171.28C345.62 169.36 346.58 166.373 346.58 162.32V94.32C346.58 90.3733 347.647 87.3867 349.78 85.36C351.913 83.2267 354.9 82.16 358.74 82.16C362.58 82.16 365.513 83.2267 367.54 85.36C369.673 87.3867 370.74 90.3733 370.74 94.32V160.08C370.74 167.12 369.567 172.933 367.22 177.52C364.98 182.107 361.513 185.573 356.82 187.92C352.127 190.373 346.1 191.76 338.74 192.08ZM358.58 69.04C354.207 69.04 350.793 68.0267 348.34 66C345.993 63.8667 344.82 60.88 344.82 57.04C344.82 53.0933 345.993 50.1067 348.34 48.08C350.793 45.9467 354.207 44.88 358.58 44.88C363.06 44.88 366.473 45.9467 368.82 48.08C371.167 50.1067 372.34 53.0933 372.34 57.04C372.34 60.88 371.167 63.8667 368.82 66C366.473 68.0267 363.06 69.04 358.58 69.04ZM427.29 163.76C418.863 163.76 411.503 162.107 405.21 158.8C399.023 155.493 394.223 150.747 390.81 144.56C387.397 138.373 385.69 131.067 385.69 122.64C385.69 116.347 386.65 110.693 388.57 105.68C390.49 100.667 393.263 96.4 396.89 92.88C400.623 89.2533 405.05 86.5333 410.17 84.72C415.29 82.8 420.997 81.84 427.29 81.84C435.717 81.84 443.023 83.4933 449.21 86.8C455.503 90.1067 460.357 94.8 463.77 100.88C467.29 106.96 469.05 114.213 469.05 122.64C469.05 129.04 468.037 134.747 466.01 139.76C464.09 144.773 461.317 149.093 457.69 152.72C454.063 156.347 449.637 159.12 444.41 161.04C439.29 162.853 433.583 163.76 427.29 163.76ZM427.29 145.68C430.81 145.68 433.85 144.827 436.41 143.12C438.97 141.413 440.997 138.907 442.49 135.6C443.983 132.187 444.73 127.867 444.73 122.64C444.73 114.853 443.13 109.147 439.93 105.52C436.73 101.787 432.517 99.92 427.29 99.92C423.877 99.92 420.837 100.72 418.17 102.32C415.61 103.92 413.583 106.427 412.09 109.84C410.703 113.147 410.01 117.413 410.01 122.64C410.01 130.427 411.61 136.24 414.81 140.08C418.01 143.813 422.17 145.68 427.29 145.68ZM503.314 192.24C500.54 192.24 498.247 191.493 496.434 190C494.62 188.507 493.554 186.533 493.234 184.08C492.914 181.733 493.34 179.227 494.514 176.56L505.234 152.88V162.8L476.914 97.84C475.847 95.0667 475.474 92.5067 475.794 90.16C476.22 87.7067 477.394 85.7867 479.314 84.4C481.34 82.9067 484.114 82.16 487.634 82.16C490.514 82.16 492.807 82.8533 494.514 84.24C496.327 85.52 497.98 88.0267 499.474 91.76L518.354 139.76H513.234L532.754 91.6C534.247 87.9733 535.9 85.52 537.714 84.24C539.634 82.8533 542.194 82.16 545.394 82.16C548.167 82.16 550.354 82.9067 551.954 84.4C553.66 85.7867 554.674 87.6533 554.994 90C555.42 92.3467 554.994 94.9067 553.714 97.68L516.114 182.96C514.514 186.587 512.7 189.04 510.674 190.32C508.754 191.6 506.3 192.24 503.314 192.24Z"
      fill="#E2E4ED" />
  </g>
  <defs>
    <filter id="filter0_d_30_815" x="0.160156" y="44.88" width="559.474" height="155.36" filterUnits="userSpaceOnUse"
      color-interpolation-filters="sRGB">
      <feFlood flood-opacity="0" result="BackgroundImageFix" />
      <feColorMatrix in="SourceAlpha" type="matrix" values="0 0 0 0 0 0 0 0 0 0 0 0 0 0 0 0 0 0 127 0"
        result="hardAlpha" />
      <feOffset dy="4" />
      <feGaussianBlur stdDeviation="2" />
      <feComposite in2="hardAlpha" operator="out" />
      <feColorMatrix type="matrix" values="0 0 0 0 0 0 0 0 0 0 0 0 0 0 0 0 0 0 0.8 0" />
      <feBlend mode="normal" in2="BackgroundImageFix" result="effect1_dropShadow_30_815" />
      <feBlend mode="normal" in="SourceGraphic" in2="effect1_dropShadow_30_815" result="shape" />
    </filter>
    <clipPath id="clip0_30_815">
      <rect width="414" height="178" fill="white" transform="translate(83.0132 8) rotate(5.48464)" />
    </clipPath>
  </defs>
</svg>