<svg width="100%" height="100%" viewBox="0 0 554 286" fill="none" xmlns="http://www.w3.org/2000/svg">
  <g clip-path="url(#clip0_47_69)">
    <path
      d="M397.513 119.221C408.06 110.794 421.524 106.901 434.941 108.4C448.359 109.9 460.631 116.667 469.059 127.215"
      stroke="rgb(var(--colors-brand-2))" stroke-width="20" stroke-linecap="round" stroke-linejoin="round" />
    <path
      d="M372.798 86.2888C391.55 71.3066 415.485 64.3869 439.338 67.052C463.191 69.7172 485.009 81.7488 499.991 100.5"
      stroke="rgb(var(--colors-brand-2))" stroke-width="20" stroke-linecap="round" stroke-linejoin="round" />
  </g>
  <path
    d="M27.52 231.432C23.5733 231.432 20.5333 230.366 18.4 228.232C16.3733 226.099 15.36 223.059 15.36 219.112V169.512H9.6C6.61333 169.512 4.26667 168.712 2.56 167.112C0.96 165.512 0.16 163.326 0.16 160.552C0.16 157.566 0.96 155.326 2.56 153.832C4.26667 152.232 6.61333 151.432 9.6 151.432H22.4L15.36 157.832V152.872C15.36 141.459 18.1867 132.926 23.84 127.272C29.6 121.619 38.0267 118.206 49.12 117.032L54.24 116.552C57.0133 116.339 59.2 116.766 60.8 117.832C62.5067 118.899 63.6267 120.286 64.16 121.992C64.6933 123.699 64.8 125.459 64.48 127.272C64.16 128.979 63.4133 130.526 62.24 131.912C61.1733 133.192 59.68 133.886 57.76 133.992L55.52 134.152C49.76 134.579 45.6533 135.966 43.2 138.312C40.7467 140.552 39.52 144.019 39.52 148.712V154.152L36.48 151.432H50.88C53.9733 151.432 56.32 152.232 57.92 153.832C59.52 155.326 60.32 157.566 60.32 160.552C60.32 163.326 59.52 165.512 57.92 167.112C56.32 168.712 53.9733 169.512 50.88 169.512H39.52V219.112C39.52 227.326 35.52 231.432 27.52 231.432ZM109.299 231.752C100.019 231.752 92.0188 230.099 85.2988 226.792C78.6854 223.379 73.5654 218.632 69.9388 212.552C66.4188 206.366 64.6588 199.112 64.6588 190.792C64.6588 182.686 66.3654 175.592 69.7787 169.512C73.1921 163.326 77.9388 158.526 84.0188 155.112C90.2054 151.592 97.1921 149.832 104.979 149.832C110.632 149.832 115.752 150.792 120.339 152.712C124.925 154.526 128.872 157.192 132.179 160.712C135.485 164.126 137.992 168.339 139.699 173.352C141.405 178.259 142.259 183.752 142.259 189.832C142.259 191.859 141.619 193.406 140.339 194.472C139.059 195.432 137.192 195.912 134.739 195.912H84.4988V183.432H124.819L122.259 185.672C122.259 181.299 121.619 177.672 120.339 174.792C119.059 171.806 117.192 169.566 114.739 168.072C112.392 166.579 109.459 165.832 105.939 165.832C101.992 165.832 98.6321 166.739 95.8588 168.552C93.0854 170.366 90.9521 172.979 89.4588 176.392C87.9654 179.806 87.2188 183.912 87.2188 188.712V189.992C87.2188 198.099 89.0854 204.072 92.8188 207.912C96.6588 211.752 102.312 213.672 109.779 213.672C112.339 213.672 115.272 213.352 118.579 212.712C121.885 212.072 124.979 211.059 127.859 209.672C130.312 208.499 132.499 208.126 134.419 208.552C136.339 208.872 137.832 209.726 138.899 211.112C139.965 212.499 140.552 214.099 140.659 215.912C140.872 217.726 140.499 219.539 139.539 221.352C138.579 223.059 136.979 224.499 134.739 225.672C131.112 227.699 127.005 229.192 122.419 230.152C117.939 231.219 113.565 231.752 109.299 231.752ZM197.111 231.752C187.831 231.752 179.831 230.099 173.111 226.792C166.498 223.379 161.378 218.632 157.751 212.552C154.231 206.366 152.471 199.112 152.471 190.792C152.471 182.686 154.178 175.592 157.591 169.512C161.005 163.326 165.751 158.526 171.831 155.112C178.018 151.592 185.005 149.832 192.791 149.832C198.445 149.832 203.565 150.792 208.151 152.712C212.738 154.526 216.685 157.192 219.991 160.712C223.298 164.126 225.805 168.339 227.511 173.352C229.218 178.259 230.071 183.752 230.071 189.832C230.071 191.859 229.431 193.406 228.151 194.472C226.871 195.432 225.005 195.912 222.551 195.912H172.311V183.432H212.631L210.071 185.672C210.071 181.299 209.431 177.672 208.151 174.792C206.871 171.806 205.005 169.566 202.551 168.072C200.205 166.579 197.271 165.832 193.751 165.832C189.805 165.832 186.445 166.739 183.671 168.552C180.898 170.366 178.765 172.979 177.271 176.392C175.778 179.806 175.031 183.912 175.031 188.712V189.992C175.031 198.099 176.898 204.072 180.631 207.912C184.471 211.752 190.125 213.672 197.591 213.672C200.151 213.672 203.085 213.352 206.391 212.712C209.698 212.072 212.791 211.059 215.671 209.672C218.125 208.499 220.311 208.126 222.231 208.552C224.151 208.872 225.645 209.726 226.711 211.112C227.778 212.499 228.365 214.099 228.471 215.912C228.685 217.726 228.311 219.539 227.351 221.352C226.391 223.059 224.791 224.499 222.551 225.672C218.925 227.699 214.818 229.192 210.231 230.152C205.751 231.219 201.378 231.752 197.111 231.752ZM274.684 231.752C267.857 231.752 261.83 230.099 256.604 226.792C251.484 223.486 247.484 218.739 244.604 212.552C241.724 206.366 240.284 199.059 240.284 190.632C240.284 182.206 241.724 174.952 244.604 168.872C247.484 162.792 251.484 158.099 256.604 154.792C261.83 151.486 267.857 149.832 274.684 149.832C280.87 149.832 286.31 151.326 291.004 154.312C295.804 157.299 299.057 161.192 300.764 165.992H299.004V128.072C299.004 124.019 300.017 120.979 302.044 118.952C304.07 116.819 307.057 115.752 311.004 115.752C314.844 115.752 317.83 116.819 319.964 118.952C322.097 120.979 323.164 124.019 323.164 128.072V219.112C323.164 223.059 322.097 226.099 319.964 228.232C317.937 230.366 315.004 231.432 311.164 231.432C307.324 231.432 304.337 230.366 302.204 228.232C300.177 226.099 299.164 223.059 299.164 219.112V208.232L300.924 214.472C299.43 219.699 296.23 223.912 291.324 227.112C286.524 230.206 280.977 231.752 274.684 231.752ZM281.884 213.672C285.404 213.672 288.444 212.819 291.004 211.112C293.564 209.406 295.59 206.899 297.084 203.592C298.577 200.179 299.324 195.859 299.324 190.632C299.324 182.846 297.724 177.139 294.524 173.512C291.324 169.779 287.11 167.912 281.884 167.912C278.47 167.912 275.43 168.712 272.764 170.312C270.204 171.912 268.177 174.419 266.684 177.832C265.297 181.139 264.604 185.406 264.604 190.632C264.604 198.419 266.204 204.232 269.404 208.072C272.604 211.806 276.764 213.672 281.884 213.672ZM334.74 260.072C331.86 260.179 329.567 259.699 327.86 258.632C326.153 257.566 324.98 256.179 324.34 254.472C323.7 252.872 323.54 251.219 323.86 249.512C324.073 247.806 324.767 246.312 325.94 245.032C327.113 243.752 328.713 243.006 330.74 242.792C334.9 242.472 337.887 241.299 339.7 239.272C341.62 237.352 342.58 234.366 342.58 230.312V162.312C342.58 158.366 343.647 155.379 345.78 153.352C347.913 151.219 350.9 150.152 354.74 150.152C358.58 150.152 361.513 151.219 363.54 153.352C365.673 155.379 366.74 158.366 366.74 162.312V228.072C366.74 235.112 365.567 240.926 363.22 245.512C360.98 250.099 357.513 253.566 352.82 255.912C348.127 258.366 342.1 259.752 334.74 260.072ZM354.58 137.032C350.207 137.032 346.793 136.019 344.34 133.992C341.993 131.859 340.82 128.872 340.82 125.032C340.82 121.086 341.993 118.099 344.34 116.072C346.793 113.939 350.207 112.872 354.58 112.872C359.06 112.872 362.473 113.939 364.82 116.072C367.167 118.099 368.34 121.086 368.34 125.032C368.34 128.872 367.167 131.859 364.82 133.992C362.473 136.019 359.06 137.032 354.58 137.032ZM423.29 231.752C414.863 231.752 407.503 230.099 401.21 226.792C395.023 223.486 390.223 218.739 386.81 212.552C383.397 206.366 381.69 199.059 381.69 190.632C381.69 184.339 382.65 178.686 384.57 173.672C386.49 168.659 389.263 164.392 392.89 160.872C396.623 157.246 401.05 154.526 406.17 152.712C411.29 150.792 416.997 149.832 423.29 149.832C431.717 149.832 439.023 151.486 445.21 154.792C451.503 158.099 456.357 162.792 459.77 168.872C463.29 174.952 465.05 182.206 465.05 190.632C465.05 197.032 464.037 202.739 462.01 207.752C460.09 212.766 457.317 217.086 453.69 220.712C450.063 224.339 445.637 227.112 440.41 229.032C435.29 230.846 429.583 231.752 423.29 231.752ZM423.29 213.672C426.81 213.672 429.85 212.819 432.41 211.112C434.97 209.406 436.997 206.899 438.49 203.592C439.983 200.179 440.73 195.859 440.73 190.632C440.73 182.846 439.13 177.139 435.93 173.512C432.73 169.779 428.517 167.912 423.29 167.912C419.877 167.912 416.837 168.712 414.17 170.312C411.61 171.912 409.583 174.419 408.09 177.832C406.703 181.139 406.01 185.406 406.01 190.632C406.01 198.419 407.61 204.232 410.81 208.072C414.01 211.806 418.17 213.672 423.29 213.672ZM499.314 260.232C496.54 260.232 494.247 259.486 492.434 257.992C490.62 256.499 489.554 254.526 489.234 252.072C488.914 249.726 489.34 247.219 490.514 244.552L501.234 220.872V230.792L472.914 165.832C471.847 163.059 471.474 160.499 471.794 158.152C472.22 155.699 473.394 153.779 475.314 152.392C477.34 150.899 480.114 150.152 483.634 150.152C486.514 150.152 488.807 150.846 490.514 152.232C492.327 153.512 493.98 156.019 495.474 159.752L514.354 207.752H509.234L528.754 159.592C530.247 155.966 531.9 153.512 533.714 152.232C535.634 150.846 538.194 150.152 541.394 150.152C544.167 150.152 546.354 150.899 547.954 152.392C549.66 153.779 550.674 155.646 550.994 157.992C551.42 160.339 550.994 162.899 549.714 165.672L512.114 250.952C510.514 254.579 508.7 257.032 506.674 258.312C504.754 259.592 502.3 260.232 499.314 260.232Z"
    fill="currentColor" />
  <defs>
    <clipPath id="clip0_47_69">
      <rect width="135.748" height="135.748" fill="currentColor" transform="translate(341 84.7361) rotate(-38.6247)" />
    </clipPath>
  </defs>
</svg>