<svg width="100%" height="100%" viewBox="0 0 560 286" fill="none" xmlns="http://www.w3.org/2000/svg">
  <g clip-path="url(#clip0_47_69)">
    <path
      d="M401.513 119.221C412.06 110.794 425.524 106.901 438.941 108.4C452.359 109.9 464.631 116.667 473.059 127.215"
      stroke="rgb(var(--colors-brand-2))" stroke-width="20" stroke-linecap="round" stroke-linejoin="round" />
    <path
      d="M376.798 86.2888C395.55 71.3066 419.485 64.3869 443.338 67.052C467.191 69.7172 489.009 81.7488 503.991 100.5"
      stroke="rgb(var(--colors-brand-2))" stroke-width="20" stroke-linecap="round" stroke-linejoin="round" />
  </g>
  <g filter="url(#filter0_d_47_69)">
    <path
      d="M31.52 231.432C27.5733 231.432 24.5333 230.366 22.4 228.232C20.3733 226.099 19.36 223.059 19.36 219.112V169.512H13.6C10.6133 169.512 8.26667 168.712 6.56 167.112C4.96 165.512 4.16 163.326 4.16 160.552C4.16 157.566 4.96 155.326 6.56 153.832C8.26667 152.232 10.6133 151.432 13.6 151.432H26.4L19.36 157.832V152.872C19.36 141.459 22.1867 132.926 27.84 127.272C33.6 121.619 42.0267 118.206 53.12 117.032L58.24 116.552C61.0133 116.339 63.2 116.766 64.8 117.832C66.5067 118.899 67.6267 120.286 68.16 121.992C68.6933 123.699 68.8 125.459 68.48 127.272C68.16 128.979 67.4133 130.526 66.24 131.912C65.1733 133.192 63.68 133.886 61.76 133.992L59.52 134.152C53.76 134.579 49.6533 135.966 47.2 138.312C44.7467 140.552 43.52 144.019 43.52 148.712V154.152L40.48 151.432H54.88C57.9733 151.432 60.32 152.232 61.92 153.832C63.52 155.326 64.32 157.566 64.32 160.552C64.32 163.326 63.52 165.512 61.92 167.112C60.32 168.712 57.9733 169.512 54.88 169.512H43.52V219.112C43.52 227.326 39.52 231.432 31.52 231.432ZM113.299 231.752C104.019 231.752 96.0188 230.099 89.2988 226.792C82.6854 223.379 77.5654 218.632 73.9388 212.552C70.4188 206.366 68.6588 199.112 68.6588 190.792C68.6588 182.686 70.3654 175.592 73.7787 169.512C77.1921 163.326 81.9388 158.526 88.0188 155.112C94.2054 151.592 101.192 149.832 108.979 149.832C114.632 149.832 119.752 150.792 124.339 152.712C128.925 154.526 132.872 157.192 136.179 160.712C139.485 164.126 141.992 168.339 143.699 173.352C145.405 178.259 146.259 183.752 146.259 189.832C146.259 191.859 145.619 193.406 144.339 194.472C143.059 195.432 141.192 195.912 138.739 195.912H88.4988V183.432H128.819L126.259 185.672C126.259 181.299 125.619 177.672 124.339 174.792C123.059 171.806 121.192 169.566 118.739 168.072C116.392 166.579 113.459 165.832 109.939 165.832C105.992 165.832 102.632 166.739 99.8588 168.552C97.0854 170.366 94.9521 172.979 93.4588 176.392C91.9654 179.806 91.2188 183.912 91.2188 188.712V189.992C91.2188 198.099 93.0854 204.072 96.8188 207.912C100.659 211.752 106.312 213.672 113.779 213.672C116.339 213.672 119.272 213.352 122.579 212.712C125.885 212.072 128.979 211.059 131.859 209.672C134.312 208.499 136.499 208.126 138.419 208.552C140.339 208.872 141.832 209.726 142.899 211.112C143.965 212.499 144.552 214.099 144.659 215.912C144.872 217.726 144.499 219.539 143.539 221.352C142.579 223.059 140.979 224.499 138.739 225.672C135.112 227.699 131.005 229.192 126.419 230.152C121.939 231.219 117.565 231.752 113.299 231.752ZM201.111 231.752C191.831 231.752 183.831 230.099 177.111 226.792C170.498 223.379 165.378 218.632 161.751 212.552C158.231 206.366 156.471 199.112 156.471 190.792C156.471 182.686 158.178 175.592 161.591 169.512C165.005 163.326 169.751 158.526 175.831 155.112C182.018 151.592 189.005 149.832 196.791 149.832C202.445 149.832 207.565 150.792 212.151 152.712C216.738 154.526 220.685 157.192 223.991 160.712C227.298 164.126 229.805 168.339 231.511 173.352C233.218 178.259 234.071 183.752 234.071 189.832C234.071 191.859 233.431 193.406 232.151 194.472C230.871 195.432 229.005 195.912 226.551 195.912H176.311V183.432H216.631L214.071 185.672C214.071 181.299 213.431 177.672 212.151 174.792C210.871 171.806 209.005 169.566 206.551 168.072C204.205 166.579 201.271 165.832 197.751 165.832C193.805 165.832 190.445 166.739 187.671 168.552C184.898 170.366 182.765 172.979 181.271 176.392C179.778 179.806 179.031 183.912 179.031 188.712V189.992C179.031 198.099 180.898 204.072 184.631 207.912C188.471 211.752 194.125 213.672 201.591 213.672C204.151 213.672 207.085 213.352 210.391 212.712C213.698 212.072 216.791 211.059 219.671 209.672C222.125 208.499 224.311 208.126 226.231 208.552C228.151 208.872 229.645 209.726 230.711 211.112C231.778 212.499 232.365 214.099 232.471 215.912C232.685 217.726 232.311 219.539 231.351 221.352C230.391 223.059 228.791 224.499 226.551 225.672C222.925 227.699 218.818 229.192 214.231 230.152C209.751 231.219 205.378 231.752 201.111 231.752ZM278.684 231.752C271.857 231.752 265.83 230.099 260.604 226.792C255.484 223.486 251.484 218.739 248.604 212.552C245.724 206.366 244.284 199.059 244.284 190.632C244.284 182.206 245.724 174.952 248.604 168.872C251.484 162.792 255.484 158.099 260.604 154.792C265.83 151.486 271.857 149.832 278.684 149.832C284.87 149.832 290.31 151.326 295.004 154.312C299.804 157.299 303.057 161.192 304.764 165.992H303.004V128.072C303.004 124.019 304.017 120.979 306.044 118.952C308.07 116.819 311.057 115.752 315.004 115.752C318.844 115.752 321.83 116.819 323.964 118.952C326.097 120.979 327.164 124.019 327.164 128.072V219.112C327.164 223.059 326.097 226.099 323.964 228.232C321.937 230.366 319.004 231.432 315.164 231.432C311.324 231.432 308.337 230.366 306.204 228.232C304.177 226.099 303.164 223.059 303.164 219.112V208.232L304.924 214.472C303.43 219.699 300.23 223.912 295.324 227.112C290.524 230.206 284.977 231.752 278.684 231.752ZM285.884 213.672C289.404 213.672 292.444 212.819 295.004 211.112C297.564 209.406 299.59 206.899 301.084 203.592C302.577 200.179 303.324 195.859 303.324 190.632C303.324 182.846 301.724 177.139 298.524 173.512C295.324 169.779 291.11 167.912 285.884 167.912C282.47 167.912 279.43 168.712 276.764 170.312C274.204 171.912 272.177 174.419 270.684 177.832C269.297 181.139 268.604 185.406 268.604 190.632C268.604 198.419 270.204 204.232 273.404 208.072C276.604 211.806 280.764 213.672 285.884 213.672ZM338.74 260.072C335.86 260.179 333.567 259.699 331.86 258.632C330.153 257.566 328.98 256.179 328.34 254.472C327.7 252.872 327.54 251.219 327.86 249.512C328.073 247.806 328.767 246.312 329.94 245.032C331.113 243.752 332.713 243.006 334.74 242.792C338.9 242.472 341.887 241.299 343.7 239.272C345.62 237.352 346.58 234.366 346.58 230.312V162.312C346.58 158.366 347.647 155.379 349.78 153.352C351.913 151.219 354.9 150.152 358.74 150.152C362.58 150.152 365.513 151.219 367.54 153.352C369.673 155.379 370.74 158.366 370.74 162.312V228.072C370.74 235.112 369.567 240.926 367.22 245.512C364.98 250.099 361.513 253.566 356.82 255.912C352.127 258.366 346.1 259.752 338.74 260.072ZM358.58 137.032C354.207 137.032 350.793 136.019 348.34 133.992C345.993 131.859 344.82 128.872 344.82 125.032C344.82 121.086 345.993 118.099 348.34 116.072C350.793 113.939 354.207 112.872 358.58 112.872C363.06 112.872 366.473 113.939 368.82 116.072C371.167 118.099 372.34 121.086 372.34 125.032C372.34 128.872 371.167 131.859 368.82 133.992C366.473 136.019 363.06 137.032 358.58 137.032ZM427.29 231.752C418.863 231.752 411.503 230.099 405.21 226.792C399.023 223.486 394.223 218.739 390.81 212.552C387.397 206.366 385.69 199.059 385.69 190.632C385.69 184.339 386.65 178.686 388.57 173.672C390.49 168.659 393.263 164.392 396.89 160.872C400.623 157.246 405.05 154.526 410.17 152.712C415.29 150.792 420.997 149.832 427.29 149.832C435.717 149.832 443.023 151.486 449.21 154.792C455.503 158.099 460.357 162.792 463.77 168.872C467.29 174.952 469.05 182.206 469.05 190.632C469.05 197.032 468.037 202.739 466.01 207.752C464.09 212.766 461.317 217.086 457.69 220.712C454.063 224.339 449.637 227.112 444.41 229.032C439.29 230.846 433.583 231.752 427.29 231.752ZM427.29 213.672C430.81 213.672 433.85 212.819 436.41 211.112C438.97 209.406 440.997 206.899 442.49 203.592C443.983 200.179 444.73 195.859 444.73 190.632C444.73 182.846 443.13 177.139 439.93 173.512C436.73 169.779 432.517 167.912 427.29 167.912C423.877 167.912 420.837 168.712 418.17 170.312C415.61 171.912 413.583 174.419 412.09 177.832C410.703 181.139 410.01 185.406 410.01 190.632C410.01 198.419 411.61 204.232 414.81 208.072C418.01 211.806 422.17 213.672 427.29 213.672ZM503.314 260.232C500.54 260.232 498.247 259.486 496.434 257.992C494.62 256.499 493.554 254.526 493.234 252.072C492.914 249.726 493.34 247.219 494.514 244.552L505.234 220.872V230.792L476.914 165.832C475.847 163.059 475.474 160.499 475.794 158.152C476.22 155.699 477.394 153.779 479.314 152.392C481.34 150.899 484.114 150.152 487.634 150.152C490.514 150.152 492.807 150.846 494.514 152.232C496.327 153.512 497.98 156.019 499.474 159.752L518.354 207.752H513.234L532.754 159.592C534.247 155.966 535.9 153.512 537.714 152.232C539.634 150.846 542.194 150.152 545.394 150.152C548.167 150.152 550.354 150.899 551.954 152.392C553.66 153.779 554.674 155.646 554.994 157.992C555.42 160.339 554.994 162.899 553.714 165.672L516.114 250.952C514.514 254.579 512.7 257.032 510.674 258.312C508.754 259.592 506.3 260.232 503.314 260.232Z"
      fill="currentColor" />
  </g>
  <defs>
    <filter id="filter0_d_47_69" x="0.159912" y="112.872" width="559.474" height="155.36" filterUnits="userSpaceOnUse"
      color-interpolation-filters="sRGB">
      <feFlood flood-opacity="0" result="BackgroundImageFix" />
      <feColorMatrix in="SourceAlpha" type="matrix" values="0 0 0 0 0 0 0 0 0 0 0 0 0 0 0 0 0 0 127 0"
        result="hardAlpha" />
      <feOffset dy="4" />
      <feGaussianBlur stdDeviation="2" />
      <feComposite in2="hardAlpha" operator="out" />
      <feColorMatrix type="matrix" values="0 0 0 0 0 0 0 0 0 0 0 0 0 0 0 0 0 0 0.8 0" />
      <feBlend mode="normal" in2="BackgroundImageFix" result="effect1_dropShadow_47_69" />
      <feBlend mode="normal" in="SourceGraphic" in2="effect1_dropShadow_47_69" result="shape" />
    </filter>
    <clipPath id="clip0_47_69">
      <rect width="135.748" height="135.748" fill="white" transform="translate(345 84.7361) rotate(-38.6247)" />
    </clipPath>
  </defs>
</svg>