<svg width="1125" height="1121" viewBox="0 0 1125 1121" fill="none" xmlns="http://www.w3.org/2000/svg">
  <g filter="url(#filter0_d_42_70)">
    <path d="M4 0L921 0C1031.46 0 1121 89.5431 1121 200V1113H204C93.543 1113 4 1023.46 4 913L4 0Z" fill="#05EEB6" />
    <g filter="url(#filter1_d_42_70)">
      <path d="M98 97H878C960.843 97 1028 164.157 1028 247V1016H248C165.157 1016 98 948.843 98 866V97Z"
        fill="#0F1014" />
    </g>
    <path
      d="M325.167 505.708C396.278 505.708 464.476 533.957 514.759 584.24C565.043 634.523 593.291 702.722 593.291 773.833"
      stroke="#AEEEDF" stroke-width="70" stroke-linecap="round" stroke-linejoin="round" />
    <path
      d="M325.167 297.167C451.586 297.167 572.828 347.387 662.221 436.779C751.613 526.171 801.833 647.413 801.833 773.833"
      stroke="#AEEEDF" stroke-width="70" stroke-linecap="round" stroke-linejoin="round" />
    <path
      d="M354.958 773.833C371.412 773.833 384.75 760.495 384.75 744.042C384.75 727.588 371.412 714.25 354.958 714.25C338.505 714.25 325.167 727.588 325.167 744.042C325.167 760.495 338.505 773.833 354.958 773.833Z"
      stroke="#AEEEDF" stroke-width="70" stroke-linecap="round" stroke-linejoin="round" />
  </g>
  <defs>
    <filter id="filter0_d_42_70" x="0" y="0" width="1125" height="1121" filterUnits="userSpaceOnUse"
      color-interpolation-filters="sRGB">
      <feFlood flood-opacity="0" result="BackgroundImageFix" />
      <feColorMatrix in="SourceAlpha" type="matrix" values="0 0 0 0 0 0 0 0 0 0 0 0 0 0 0 0 0 0 127 0"
        result="hardAlpha" />
      <feOffset dy="4" />
      <feGaussianBlur stdDeviation="2" />
      <feComposite in2="hardAlpha" operator="out" />
      <feColorMatrix type="matrix" values="0 0 0 0 0 0 0 0 0 0 0 0 0 0 0 0 0 0 0.25 0" />
      <feBlend mode="normal" in2="BackgroundImageFix" result="effect1_dropShadow_42_70" />
      <feBlend mode="normal" in="SourceGraphic" in2="effect1_dropShadow_42_70" result="shape" />
    </filter>
    <filter id="filter1_d_42_70" x="94" y="97" width="938" height="927" filterUnits="userSpaceOnUse"
      color-interpolation-filters="sRGB">
      <feFlood flood-opacity="0" result="BackgroundImageFix" />
      <feColorMatrix in="SourceAlpha" type="matrix" values="0 0 0 0 0 0 0 0 0 0 0 0 0 0 0 0 0 0 127 0"
        result="hardAlpha" />
      <feOffset dy="4" />
      <feGaussianBlur stdDeviation="2" />
      <feComposite in2="hardAlpha" operator="out" />
      <feColorMatrix type="matrix" values="0 0 0 0 0 0 0 0 0 0 0 0 0 0 0 0 0 0 0.75 0" />
      <feBlend mode="normal" in2="BackgroundImageFix" result="effect1_dropShadow_42_70" />
      <feBlend mode="normal" in="SourceGraphic" in2="effect1_dropShadow_42_70" result="shape" />
    </filter>
  </defs>
</svg>