<svg width="100%" height="100%" viewBox="0 0 201 152" fill="none" xmlns="http://www.w3.org/2000/svg">
  <g clip-path="url(#clip0_27_7)">
    <path fill-rule="evenodd" clip-rule="evenodd"
      d="M87.2637 12.5991L17.56 151.413L191.913 127.389L87.2637 12.5991ZM178.02 127.89L31.0701 148.139L102.474 122.985L178.02 127.89ZM28.0025 147.735L102.279 121.569L180.864 126.671L100.843 111.147L28.0025 147.735ZM99.2148 99.3308L28.3002 146.019L100.641 109.682L180.114 125.1L99.2148 99.3308ZM28.708 144.074L99.0031 97.7941L179.195 123.338L97.5892 87.5337L28.708 144.074ZM95.9658 75.7524L29.1983 141.86L97.365 85.9064L178.124 121.339L95.9658 75.7524ZM29.7462 139.348L95.727 74.0188L176.917 119.068L94.3443 63.9844L29.7462 139.348ZM92.7242 52.2273L30.331 136.514L94.0889 62.1311L175.588 116.499L92.7242 52.2273ZM30.9353 133.345L92.4508 50.2434L174.149 113.611L91.1053 40.4789L30.9353 133.345ZM89.2179 26.7815L29.6802 132.707L90.8128 38.3558L175.185 112.657L89.2179 26.7815ZM32.2516 125.275L88.9017 24.4868L170.699 106.198L87.601 15.0472L32.2516 125.275Z"
      fill="#C58FFF" fill-opacity="0.51" />
    <path fill-rule="evenodd" clip-rule="evenodd"
      d="M87.2637 12.5991L17.56 151.413L191.913 127.389L87.2637 12.5991ZM178.02 127.89L31.0701 148.139L102.474 122.985L178.02 127.89ZM28.0025 147.735L102.279 121.569L180.864 126.671L100.843 111.147L28.0025 147.735ZM99.2148 99.3308L28.3002 146.019L100.641 109.682L180.114 125.1L99.2148 99.3308ZM28.708 144.074L99.0031 97.7941L179.195 123.338L97.5892 87.5337L28.708 144.074ZM95.9658 75.7524L29.1983 141.86L97.365 85.9064L178.124 121.339L95.9658 75.7524ZM29.7462 139.348L95.727 74.0188L176.917 119.068L94.3443 63.9844L29.7462 139.348ZM92.7242 52.2273L30.331 136.514L94.0889 62.1311L175.588 116.499L92.7242 52.2273ZM30.9353 133.345L92.4508 50.2434L174.149 113.611L91.1053 40.4789L30.9353 133.345ZM89.2179 26.7815L29.6802 132.707L90.8128 38.3558L175.185 112.657L89.2179 26.7815ZM32.2516 125.275L88.9017 24.4868L170.699 106.198L87.601 15.0472L32.2516 125.275Z"
      fill="#C58FFF" fill-opacity="0.2" />
  </g>
  <g filter="url(#filter0_d_27_7)">
    <path
      d="M16.46 99.495C15.1033 99.495 14.0583 99.1283 13.325 98.395C12.6283 97.6617 12.28 96.6167 12.28 95.26V78.21H10.3C9.27333 78.21 8.46667 77.935 7.88 77.385C7.33 76.835 7.055 76.0833 7.055 75.13C7.055 74.1033 7.33 73.3333 7.88 72.82C8.46667 72.27 9.27333 71.995 10.3 71.995H14.7L12.28 74.195V72.49C12.28 68.5667 13.2517 65.6333 15.195 63.69C17.175 61.7467 20.0717 60.5733 23.885 60.17L25.645 60.005C26.5983 59.9317 27.35 60.0783 27.9 60.445C28.4867 60.8117 28.8717 61.2883 29.055 61.875C29.2383 62.4617 29.275 63.0667 29.165 63.69C29.055 64.2767 28.7983 64.8083 28.395 65.285C28.0283 65.725 27.515 65.9633 26.855 66L26.085 66.055C24.105 66.2017 22.6933 66.6783 21.85 67.485C21.0067 68.255 20.585 69.4467 20.585 71.06V72.93L19.54 71.995H24.49C25.5533 71.995 26.36 72.27 26.91 72.82C27.46 73.3333 27.735 74.1033 27.735 75.13C27.735 76.0833 27.46 76.835 26.91 77.385C26.36 77.935 25.5533 78.21 24.49 78.21H20.585V95.26C20.585 98.0833 19.21 99.495 16.46 99.495ZM44.5714 99.605C41.3814 99.605 38.6314 99.0367 36.3214 97.9C34.0481 96.7267 32.2881 95.095 31.0414 93.005C29.8314 90.8783 29.2264 88.385 29.2264 85.525C29.2264 82.7383 29.8131 80.3 30.9864 78.21C32.1598 76.0833 33.7914 74.4333 35.8814 73.26C38.0081 72.05 40.4098 71.445 43.0864 71.445C45.0298 71.445 46.7898 71.775 48.3664 72.435C49.9431 73.0583 51.2998 73.975 52.4364 75.185C53.5731 76.3583 54.4348 77.8067 55.0214 79.53C55.6081 81.2167 55.9014 83.105 55.9014 85.195C55.9014 85.8917 55.6814 86.4233 55.2414 86.79C54.8014 87.12 54.1598 87.285 53.3164 87.285H36.0464V82.995H49.9064L49.0264 83.765C49.0264 82.2617 48.8064 81.015 48.3664 80.025C47.9264 78.9983 47.2848 78.2283 46.4414 77.715C45.6348 77.2017 44.6264 76.945 43.4164 76.945C42.0598 76.945 40.9048 77.2567 39.9514 77.88C38.9981 78.5033 38.2648 79.4017 37.7514 80.575C37.2381 81.7483 36.9814 83.16 36.9814 84.81V85.25C36.9814 88.0367 37.6231 90.09 38.9064 91.41C40.2264 92.73 42.1698 93.39 44.7364 93.39C45.6164 93.39 46.6248 93.28 47.7614 93.06C48.8981 92.84 49.9614 92.4917 50.9514 92.015C51.7948 91.6117 52.5464 91.4833 53.2064 91.63C53.8664 91.74 54.3798 92.0333 54.7464 92.51C55.1131 92.9867 55.3148 93.5367 55.3514 94.16C55.4248 94.7833 55.2964 95.4067 54.9664 96.03C54.6364 96.6167 54.0864 97.1117 53.3164 97.515C52.0698 98.2117 50.6581 98.725 49.0814 99.055C47.5414 99.4217 46.0381 99.605 44.5714 99.605ZM74.757 99.605C71.567 99.605 68.817 99.0367 66.507 97.9C64.2337 96.7267 62.4737 95.095 61.227 93.005C60.017 90.8783 59.412 88.385 59.412 85.525C59.412 82.7383 59.9987 80.3 61.172 78.21C62.3453 76.0833 63.977 74.4333 66.067 73.26C68.1937 72.05 70.5953 71.445 73.272 71.445C75.2153 71.445 76.9753 71.775 78.552 72.435C80.1287 73.0583 81.4853 73.975 82.622 75.185C83.7587 76.3583 84.6203 77.8067 85.207 79.53C85.7937 81.2167 86.087 83.105 86.087 85.195C86.087 85.8917 85.867 86.4233 85.427 86.79C84.987 87.12 84.3453 87.285 83.502 87.285H66.232V82.995H80.092L79.212 83.765C79.212 82.2617 78.992 81.015 78.552 80.025C78.112 78.9983 77.4703 78.2283 76.627 77.715C75.8203 77.2017 74.812 76.945 73.602 76.945C72.2453 76.945 71.0903 77.2567 70.137 77.88C69.1837 78.5033 68.4503 79.4017 67.937 80.575C67.4237 81.7483 67.167 83.16 67.167 84.81V85.25C67.167 88.0367 67.8087 90.09 69.092 91.41C70.412 92.73 72.3553 93.39 74.922 93.39C75.802 93.39 76.8103 93.28 77.947 93.06C79.0837 92.84 80.147 92.4917 81.137 92.015C81.9803 91.6117 82.732 91.4833 83.392 91.63C84.052 91.74 84.5653 92.0333 84.932 92.51C85.2987 92.9867 85.5003 93.5367 85.537 94.16C85.6103 94.7833 85.482 95.4067 85.152 96.03C84.822 96.6167 84.272 97.1117 83.502 97.515C82.2553 98.2117 80.8437 98.725 79.267 99.055C77.727 99.4217 76.2237 99.605 74.757 99.605ZM101.423 99.605C99.0759 99.605 97.0042 99.0367 95.2075 97.9C93.4475 96.7633 92.0725 95.1317 91.0825 93.005C90.0925 90.8783 89.5975 88.3667 89.5975 85.47C89.5975 82.5733 90.0925 80.08 91.0825 77.99C92.0725 75.9 93.4475 74.2867 95.2075 73.15C97.0042 72.0133 99.0759 71.445 101.423 71.445C103.549 71.445 105.419 71.9583 107.033 72.985C108.683 74.0117 109.801 75.35 110.388 77H109.783V63.965C109.783 62.5717 110.131 61.5267 110.828 60.83C111.524 60.0967 112.551 59.73 113.908 59.73C115.228 59.73 116.254 60.0967 116.988 60.83C117.721 61.5267 118.088 62.5717 118.088 63.965V95.26C118.088 96.6167 117.721 97.6617 116.988 98.395C116.291 99.1283 115.283 99.495 113.963 99.495C112.643 99.495 111.616 99.1283 110.883 98.395C110.186 97.6617 109.838 96.6167 109.838 95.26V91.52L110.443 93.665C109.929 95.4617 108.829 96.91 107.143 98.01C105.493 99.0733 103.586 99.605 101.423 99.605ZM103.898 93.39C105.108 93.39 106.153 93.0967 107.033 92.51C107.913 91.9233 108.609 91.0617 109.123 89.925C109.636 88.7517 109.893 87.2667 109.893 85.47C109.893 82.7933 109.343 80.8317 108.243 79.585C107.143 78.3017 105.694 77.66 103.898 77.66C102.724 77.66 101.679 77.935 100.763 78.485C99.8825 79.035 99.1859 79.8967 98.6725 81.07C98.1959 82.2067 97.9575 83.6733 97.9575 85.47C97.9575 88.1467 98.5075 90.145 99.6075 91.465C100.708 92.7483 102.138 93.39 103.898 93.39ZM122.067 109.34C121.077 109.377 120.289 109.212 119.702 108.845C119.115 108.478 118.712 108.002 118.492 107.415C118.272 106.865 118.217 106.297 118.327 105.71C118.4 105.123 118.639 104.61 119.042 104.17C119.445 103.73 119.995 103.473 120.692 103.4C122.122 103.29 123.149 102.887 123.772 102.19C124.432 101.53 124.762 100.503 124.762 99.11V75.735C124.762 74.3783 125.129 73.3517 125.862 72.655C126.595 71.9217 127.622 71.555 128.942 71.555C130.262 71.555 131.27 71.9217 131.967 72.655C132.7 73.3517 133.067 74.3783 133.067 75.735V98.34C133.067 100.76 132.664 102.758 131.857 104.335C131.087 105.912 129.895 107.103 128.282 107.91C126.669 108.753 124.597 109.23 122.067 109.34ZM128.887 67.045C127.384 67.045 126.21 66.6967 125.367 66C124.56 65.2667 124.157 64.24 124.157 62.92C124.157 61.5633 124.56 60.5367 125.367 59.84C126.21 59.1067 127.384 58.74 128.887 58.74C130.427 58.74 131.6 59.1067 132.407 59.84C133.214 60.5367 133.617 61.5633 133.617 62.92C133.617 64.24 133.214 65.2667 132.407 66C131.6 66.6967 130.427 67.045 128.887 67.045ZM152.506 99.605C149.609 99.605 147.079 99.0367 144.916 97.9C142.789 96.7633 141.139 95.1317 139.966 93.005C138.793 90.8783 138.206 88.3667 138.206 85.47C138.206 83.3067 138.536 81.3633 139.196 79.64C139.856 77.9167 140.809 76.45 142.056 75.24C143.339 73.9933 144.861 73.0583 146.621 72.435C148.381 71.775 150.343 71.445 152.506 71.445C155.403 71.445 157.914 72.0133 160.041 73.15C162.204 74.2867 163.873 75.9 165.046 77.99C166.256 80.08 166.861 82.5733 166.861 85.47C166.861 87.67 166.513 89.6317 165.816 91.355C165.156 93.0783 164.203 94.5633 162.956 95.81C161.709 97.0567 160.188 98.01 158.391 98.67C156.631 99.2933 154.669 99.605 152.506 99.605ZM152.506 93.39C153.716 93.39 154.761 93.0967 155.641 92.51C156.521 91.9233 157.218 91.0617 157.731 89.925C158.244 88.7517 158.501 87.2667 158.501 85.47C158.501 82.7933 157.951 80.8317 156.851 79.585C155.751 78.3017 154.303 77.66 152.506 77.66C151.333 77.66 150.288 77.935 149.371 78.485C148.491 79.035 147.794 79.8967 147.281 81.07C146.804 82.2067 146.566 83.6733 146.566 85.47C146.566 88.1467 147.116 90.145 148.216 91.465C149.316 92.7483 150.746 93.39 152.506 93.39ZM178.639 109.395C177.686 109.395 176.897 109.138 176.274 108.625C175.651 108.112 175.284 107.433 175.174 106.59C175.064 105.783 175.211 104.922 175.614 104.005L179.299 95.865V99.275L169.564 76.945C169.197 75.9917 169.069 75.1117 169.179 74.305C169.326 73.4617 169.729 72.8017 170.389 72.325C171.086 71.8117 172.039 71.555 173.249 71.555C174.239 71.555 175.027 71.7933 175.614 72.27C176.237 72.71 176.806 73.5717 177.319 74.855L183.809 91.355H182.049L188.759 74.8C189.272 73.5533 189.841 72.71 190.464 72.27C191.124 71.7933 192.004 71.555 193.104 71.555C194.057 71.555 194.809 71.8117 195.359 72.325C195.946 72.8017 196.294 73.4433 196.404 74.25C196.551 75.0567 196.404 75.9367 195.964 76.89L183.039 106.205C182.489 107.452 181.866 108.295 181.169 108.735C180.509 109.175 179.666 109.395 178.639 109.395Z"
      fill="#E2E4ED" />
  </g>
  <defs>
    <filter id="filter0_d_27_7" x="3.05518" y="58.74" width="197.569" height="58.655" filterUnits="userSpaceOnUse"
      color-interpolation-filters="sRGB">
      <feFlood flood-opacity="0" result="BackgroundImageFix" />
      <feColorMatrix in="SourceAlpha" type="matrix" values="0 0 0 0 0 0 0 0 0 0 0 0 0 0 0 0 0 0 127 0"
        result="hardAlpha" />
      <feOffset dy="4" />
      <feGaussianBlur stdDeviation="2" />
      <feComposite in2="hardAlpha" operator="out" />
      <feColorMatrix type="matrix" values="0 0 0 0 0 0 0 0 0 0 0 0 0 0 0 0 0 0 0.45 0" />
      <feBlend mode="normal" in2="BackgroundImageFix" result="effect1_dropShadow_27_7" />
      <feBlend mode="normal" in="SourceGraphic" in2="effect1_dropShadow_27_7" result="shape" />
    </filter>
    <clipPath id="clip0_27_7">
      <rect width="176" height="128" fill="white" transform="translate(0.0874023 24.6116) rotate(-7.84566)" />
    </clipPath>
  </defs>
</svg>